<?xml version="1.0" encoding="UTF-8" standalone="no"?>
<!-- Created with Inkscape (http://www.inkscape.org/) -->

<svg
   width="210mm"
   height="297mm"
   viewBox="0 0 210 297"
   version="1.1"
   id="svg5"
   inkscape:version="1.2.2 (732a01da63, 2022-12-09)"
   sodipodi:docname="next.svg"
   xmlns:inkscape="http://www.inkscape.org/namespaces/inkscape"
   xmlns:sodipodi="http://sodipodi.sourceforge.net/DTD/sodipodi-0.dtd"
   xmlns="http://www.w3.org/2000/svg"
   xmlns:svg="http://www.w3.org/2000/svg">
  <sodipodi:namedview
     id="namedview7"
     pagecolor="#ffffff"
     bordercolor="#000000"
     borderopacity="0.25"
     inkscape:showpageshadow="2"
     inkscape:pageopacity="0.0"
     inkscape:pagecheckerboard="0"
     inkscape:deskcolor="#d1d1d1"
     inkscape:document-units="mm"
     showgrid="false"
     inkscape:zoom="1.0129245"
     inkscape:cx="433.39854"
     inkscape:cy="156.97122"
     inkscape:window-width="1920"
     inkscape:window-height="991"
     inkscape:window-x="-9"
     inkscape:window-y="-9"
     inkscape:window-maximized="1"
     inkscape:current-layer="layer1" />
  <defs
     id="defs2" />
  <g
     inkscape:label="Taso 1"
     inkscape:groupmode="layer"
     id="layer1">
    <path
       style="fill:#000000;stroke-width:0.264583"
       id="path530"
       d="m 21.215415,123.47931 c -1.300066,-5.68011 -1.698297,-11.52169 -2.090252,-17.31916 -0.346339,-7.851414 -0.219141,-15.740263 0.709035,-23.550847 0.530793,-4.466619 0.817578,-5.526381 1.658206,-9.818614 0.802556,-3.412519 1.688673,-6.840968 3.199685,-10.021911 0.548788,-1.155295 1.399217,-2.65254 2.30688,-3.61329 0.337659,-0.357407 0.76821,-0.613897 1.152314,-0.920843 0.39607,-0.03887 0.79136,-0.146494 1.188209,-0.116601 0.102367,0.0077 -0.286747,0.09431 -0.244155,0.187711 0.472639,1.036455 1.201881,1.941462 1.685422,2.972874 1.34461,2.868097 3.192974,8.266705 4.161245,11.00061 0.851771,2.404957 1.689873,4.814734 2.534809,7.222101 3.682069,10.483969 7.288049,20.99586 10.520003,31.62831 0.183827,0.62342 0.363209,1.24816 0.551479,1.87025 0.231425,0.7647 0.58193,2.57691 2.159542,1.89971 0.52755,-0.22646 0.03602,-1.14816 0.0241,-1.72214 -0.218176,-10.50631 -0.115465,5.70281 -0.146662,-9.49304 0.159682,-2.56026 0.211749,-5.129508 0.479044,-7.680776 1.253215,-11.961662 4.345054,-23.789373 9.455754,-34.694548 1.203909,-2.568892 2.645915,-5.019317 3.968871,-7.528978 4.101992,-6.298176 4.590754,-7.506684 9.459024,-13.185695 1.704424,-1.988272 3.568824,-3.833622 5.353235,-5.75043 0,0 -0.795068,-0.483161 -0.795068,-0.483161 v 0 c -1.779606,1.922624 -3.640426,3.773141 -5.338815,5.767874 -4.848106,5.694024 -5.33686,6.918198 -9.408314,13.23399 -1.310319,2.519669 -2.739043,4.98122 -3.930962,7.559013 -5.049541,10.920749 -8.087283,22.732264 -9.614588,34.640083 -0.322498,2.514378 -0.468098,5.048298 -0.702145,7.572448 -0.08921,1.91905 -0.190749,3.83758 -0.267624,5.75717 -0.04632,1.15657 -0.06566,2.31407 -0.101936,3.471 -0.0293,0.93459 -0.491961,2.46357 1.398908,2.40172 1.047303,-0.0343 -3.477948,-3.63106 -1.087914,-2.94934 -3.671303,-10.64521 -7.459281,-21.249601 -11.102721,-31.904403 -0.805921,-2.389071 -1.620007,-4.775404 -2.417768,-7.167214 -0.694055,-2.080889 -1.341141,-4.17753 -2.057654,-6.250794 -0.1979,-0.572635 -2.223439,-6.510528 -3.136101,-7.528647 -0.771511,-0.860661 -1.828622,-1.465787 -2.898433,-1.90337 -0.380535,-0.155652 -0.808903,0.147685 -1.213353,0.221525 -0.374787,0.329287 -0.796519,0.611809 -1.124361,0.987859 -0.876308,1.005165 -1.686655,2.536184 -2.208174,3.718292 -1.431312,3.244303 -2.246952,6.714522 -2.998938,10.164302 -0.782608,4.323715 -1.050603,5.401697 -1.547033,9.891035 -0.863821,7.811723 -0.989195,15.687458 -0.776567,23.537295 0.266471,5.6982 0.564094,11.412 1.476017,17.05116 0,0 1.767757,0.84747 1.767756,0.84747 z" />
    <path
       style="fill:#000000;stroke-width:0.264583"
       id="path538"
       d="m 68.96587,103.55334 c 0.55168,-0.18055 1.118248,-0.32076 1.655046,-0.54167 5.061958,-2.08323 9.450715,-5.626484 13.044683,-9.714836 1.124378,-1.279046 2.100315,-2.681309 3.150473,-4.021963 2.256324,-3.535651 4.673213,-7.393313 4.900856,-11.734326 0.08921,-1.701268 -0.196297,-3.797305 -1.88408,-4.77406 -1.20488,-0.697293 -2.644002,-0.872397 -3.966006,-1.308594 -1.075867,0.363145 -2.234411,0.53904 -3.227604,1.08944 -2.75358,1.525955 -5.102596,4.110855 -6.916272,6.602481 -2.232806,3.067426 -4.044278,6.547183 -5.250738,10.145519 -0.597014,1.780636 -0.901811,3.646244 -1.352717,5.469369 -0.230957,3.940953 -0.728144,5.92832 0.440571,9.71736 0.389461,1.26265 0.936485,2.5158 1.750589,3.55657 1.738762,2.22288 5.066723,3.48531 7.764862,3.49226 1.508831,0.004 2.900489,-0.83276 4.350734,-1.24914 1.588207,-0.93909 3.268467,-1.73754 4.764619,-2.81727 3.567676,-2.57467 7.329117,-6.38229 10.176796,-9.659461 3.707758,-4.26697 7.273948,-9.239043 10.441168,-13.894969 1.8281,-2.687376 3.55847,-5.439952 5.33771,-8.159927 0,0 -0.58046,-0.339815 -0.58046,-0.339815 v 0 c -1.80466,2.703954 -3.55749,5.443225 -5.41398,8.11186 -3.20737,4.610468 -6.86183,9.568413 -10.623368,13.770695 -2.951239,3.297037 -6.692546,6.959217 -10.381425,9.493607 -1.529318,1.0507 -3.240423,1.80853 -4.860636,2.71279 -1.468205,0.37919 -2.916044,0.84848 -4.404611,1.13757 -0.78699,0.15284 -1.648918,0.46903 -2.398062,0.18356 -1.116708,-0.42554 -2.088584,-1.25634 -2.845017,-2.1815 -1.766366,-2.16037 -2.512835,-5.42333 -2.674548,-8.0963 -0.104614,-1.729156 0.160543,-3.46092 0.240815,-5.191383 0.442103,-1.82037 0.732841,-3.684315 1.326312,-5.461108 1.199811,-3.592124 3.016014,-7.048545 5.294823,-10.073664 1.86064,-2.469994 4.26806,-4.973912 7.082573,-6.404575 1.013438,-0.515149 2.181725,-0.640162 3.272589,-0.960242 0.371043,-0.112112 0.771974,-0.52033 1.113133,-0.336336 2.90235,1.56527 2.204916,5.882979 1.489335,8.339439 -0.403376,1.384721 -0.968452,2.724904 -1.615165,4.01406 -0.720516,1.436277 -1.649354,2.75822 -2.474029,4.137332 -1.050327,1.334471 -2.020477,2.736149 -3.150978,4.003418 -3.636116,4.076015 -8.164584,7.616109 -13.373738,9.408579 -0.570733,0.19639 -1.171977,0.28929 -1.757966,0.43393 0,0 1.553713,1.1013 1.553713,1.1013 z" />
    <path
       style="fill:#000000;stroke-width:0.264583"
       id="path540"
       d="m 105.69089,64.718704 c 0.20712,-0.304884 0.39128,-0.626694 0.62135,-0.914648 2.39262,-2.994523 5.67193,-5.379006 9.11312,-7.025725 1.26071,-0.603284 2.59192,-1.046557 3.88787,-1.569836 1.46618,-0.360011 2.90818,-0.838986 4.39855,-1.080032 5.99769,-0.970039 12.35901,-0.08409 17.57519,3.153899 0.77135,0.478825 1.37689,1.18373 2.06533,1.775595 2.46169,2.736517 3.13661,3.124153 4.81858,6.453087 2.03491,4.027456 2.96637,8.540893 3.54233,12.97795 0.21623,1.665748 0.32112,3.344061 0.48168,5.016093 0.30853,6.799291 0.21913,3.404449 0.26971,10.184489 0,0 1.1665,0.593236 1.1665,0.593236 v 0 c -0.0535,-6.786555 0.0325,-3.389313 -0.2593,-10.191695 -0.14911,-1.669719 -0.24427,-3.34514 -0.44735,-5.00916 -0.54126,-4.434925 -1.42476,-8.949391 -3.43062,-12.985763 -1.66302,-3.346484 -2.35049,-3.750299 -4.80425,-6.505877 -3.27522,-2.31798 -4.71911,-3.710191 -8.37469,-5.062508 -4.3891,-1.623671 -9.14029,-1.91943 -13.73891,-1.183859 -1.50566,0.240837 -2.96489,0.71383 -4.44733,1.070744 -1.31555,0.517864 -2.66455,0.957686 -3.94663,1.553594 -3.52956,1.640525 -6.84159,4.00631 -9.45979,6.893915 -0.25268,0.278683 -0.46916,0.588166 -0.70374,0.88225 0,0 1.6724,0.974251 1.6724,0.974251 z" />
    <path
       style="fill:#000000;stroke-width:0.264583"
       id="path542"
       d="m 116.75315,91.572928 c 1.42938,-5.132858 4.39483,-9.866135 7.86296,-13.868003 1.23294,-1.422691 2.59749,-2.725772 3.89623,-4.088656 1.6,-1.354273 3.1262,-2.80089 4.8,-4.062815 6.4517,-4.864142 14.53867,-9.045353 22.60603,-10.25417 1.7052,-0.255508 3.44184,-0.213871 5.16276,-0.320808 6.00905,0.764384 3.14751,0.08196 8.60456,1.961762 0,0 -1.12764,-0.876885 -1.12764,-0.876885 v 0 c -5.41785,-1.800418 -2.57989,-1.158253 -8.53275,-1.841085 -1.70584,0.126061 -3.42893,0.105352 -5.11752,0.37818 -8.01454,1.294929 -16.1021,5.565656 -22.56322,10.347999 -1.6954,1.254882 -3.25386,2.684923 -4.88079,4.027385 -1.33265,1.347456 -2.72841,2.635289 -3.99795,4.042365 -3.59251,3.981693 -6.56405,8.593425 -8.3916,13.645422 0,0 1.67893,0.909309 1.67893,0.909309 z" />
    <path
       style="fill:#000000;stroke-width:0.264583"
       id="path544"
       d="m 191.163,58.113585 c -3.39232,6.213441 -6.10819,12.822431 -7.65225,19.748812 -0.46145,2.070018 -0.73752,4.177046 -1.10628,6.265569 -0.86549,7.816755 -0.77426,15.796302 1.07907,23.475354 0.8992,3.72572 1.31331,4.31888 2.76249,7.66516 0.54531,0.89292 1.02169,1.83178 1.63592,2.67876 1.64587,2.26952 4.06193,3.99458 6.82903,4.64022 1.37544,0.32093 2.67027,-0.52544 3.81284,-1.04983 0,0 -1.43184,-0.95138 -1.43184,-0.95138 v 0 c -3.67783,1.58371 -0.072,0.27599 -3.75395,0.94045 -0.15558,0.0281 -0.24109,0.34071 -0.38548,0.27631 -0.67834,-0.30254 -1.27785,-0.77332 -1.83364,-1.26604 -1.78182,-1.57963 -2.21464,-2.60359 -3.52115,-4.64955 -1.53027,-3.35377 -1.97462,-3.96949 -2.94383,-7.71636 -1.43342,-5.54153 -1.94954,-11.352037 -1.76204,-17.064333 0.0707,-2.154071 0.34348,-4.296754 0.51522,-6.445131 0.38301,-2.076685 0.66903,-4.173625 1.14904,-6.230056 1.60159,-6.861376 4.36757,-13.479108 8.24608,-19.361666 0,0 -1.63923,-0.956289 -1.63923,-0.956289 z" />
    <path
       style="fill:#000000;stroke-width:0.264583"
       id="path546"
       d="m 168.38291,78.455829 c 6.39828,1.061333 12.64294,2.862857 18.91105,4.496638 5.11517,1.23471 2.57259,0.665644 7.62663,1.712021 0,0 -1.17913,-0.893911 -1.17913,-0.893911 v 0 c -5.03045,-1.034938 -2.49835,-0.470818 -7.59515,-1.69755 -6.40222,-1.673651 -12.778,-3.480316 -19.27532,-4.757777 0,0 1.51192,1.140579 1.51192,1.140579 z" />
  </g>
</svg>
